<?xml version="1.0" standalone="no"?>
<!DOCTYPE svg PUBLIC "-//W3C//DTD SVG 20010904//EN"
 "http://www.w3.org/TR/2001/REC-SVG-20010904/DTD/svg10.dtd">
<svg version="1.0" xmlns="http://www.w3.org/2000/svg"
 width="700.000000pt" height="700.000000pt" viewBox="0 0 700.000000 700.000000"
 preserveAspectRatio="xMidYMid meet">
<metadata>
Created by potrace 1.14, written by Peter Selinger 2001-2017
</metadata>
<g transform="translate(0.000000,700.000000) scale(0.100000,-0.100000)"
fill="#000000" stroke="none">
<path d="M95 6921 c-31 -14 -53 -46 -59 -85 -5 -32 34 -115 378 -803 212 -423
397 -781 412 -797 15 -16 48 -38 73 -49 42 -19 68 -20 311 -22 146 -1 279 -5
295 -10 43 -12 113 -64 136 -102 11 -18 160 -311 330 -652 223 -445 319 -628
344 -652 65 -64 82 -66 529 -66 427 -1 441 1 467 49 30 56 27 64 -367 852
-257 515 -390 770 -412 793 -62 63 -77 66 -383 68 -311 3 -331 7 -401 81 -37
39 -57 78 -482 920 -116 230 -200 384 -221 407 -70 74 -52 72 -515 74 -228 1
-424 -2 -435 -6z"/>
<path d="M6039 6916 c-41 -15 -81 -43 -108 -78 -10 -13 -159 -306 -332 -651
-215 -431 -325 -640 -348 -664 -69 -72 -92 -76 -401 -77 -264 -2 -277 -3 -322
-24 -25 -13 -58 -38 -72 -56 -36 -48 -777 -1532 -781 -1564 -2 -15 3 -41 10
-59 26 -61 27 -61 490 -59 l420 2 40 24 c22 13 50 36 63 50 12 14 165 311 340
659 343 686 352 702 444 731 31 10 116 14 308 15 243 2 269 3 310 22 25 11 58
33 74 49 30 31 782 1523 790 1570 7 39 -18 90 -53 108 -26 14 -86 16 -433 16
-305 -1 -412 -4 -439 -14z"/>
<path d="M2425 3340 c-43 -9 -86 -34 -117 -67 -15 -15 -170 -314 -344 -663
-346 -691 -352 -700 -448 -731 -40 -13 -102 -16 -300 -17 -258 -1 -270 -2
-321 -22 -70 -27 -86 -54 -477 -835 -423 -844 -413 -820 -349 -877 20 -18 43
-28 64 -29 255 -5 801 1 836 11 92 24 95 30 442 724 177 353 333 654 347 669
15 15 49 39 77 53 51 24 56 25 331 27 263 2 281 4 319 24 22 12 52 34 67 50
36 39 788 1544 788 1578 0 33 -25 77 -54 96 -17 11 -98 14 -426 14 -223 1
-418 -2 -435 -5z"/>
<path d="M3748 3342 c-53 -14 -88 -56 -88 -107 0 -34 753 -1541 788 -1578 15
-16 45 -38 67 -50 38 -20 56 -22 295 -24 140 -1 273 -5 295 -8 52 -8 118 -47
149 -88 13 -17 167 -316 340 -664 344 -686 345 -689 440 -714 32 -9 553 -15
828 -10 50 1 95 42 102 93 5 34 -31 111 -379 807 -342 684 -390 773 -427 805
-23 20 -59 41 -81 47 -21 6 -158 11 -305 12 -263 2 -268 2 -316 27 -27 14 -63
43 -81 65 -17 22 -172 321 -344 665 -172 344 -324 638 -339 654 -15 16 -47 38
-72 49 -43 20 -62 21 -452 22 -223 0 -412 -1 -420 -3z"/>
</g>
</svg>
