<?xml version="1.0" encoding="utf-8"?>
<!-- Generator: Adobe Illustrator 27.5.0, SVG Export Plug-In . SVG Version: 6.00 Build 0)  -->
<svg version="1.1" id="Capa_1" xmlns="http://www.w3.org/2000/svg" xmlns:xlink="http://www.w3.org/1999/xlink" x="0px" y="0px"
	 viewBox="0 0 1133.9 566.9" style="enable-background:new 0 0 1133.9 566.9;" xml:space="preserve">
<style type="text/css">
	.st0{fill:#ECECEC;}
</style>
<g>
	<g>
		<g>
			<path class="st0" d="M424,148l30.7,61.5c1.7,3.3,5.1,5.4,8.8,5.4h18.8l0,0c3.7,0,7.1,2.1,8.8,5.4l0,0l25.5,51
				c1.7,3.3,5.1,5.5,8.8,5.5H556c3.2,0,5.3-3.4,3.9-6.3l-30.7-61.5c-1.7-3.3-5.1-5.4-8.8-5.4h-18.8l0,0c-3.7,0-7.1-2.1-8.8-5.4l0,0
				l-25.5-51c-1.7-3.3-5.1-5.4-8.8-5.4h-30.5C424.6,141.7,422.6,145.1,424,148z"/>
		</g>
		<g>
			<path class="st0" d="M559.8,296.4l-30.7,61.5c-1.7,3.3-5.1,5.5-8.8,5.5h-18.8l0,0c-3.7,0-7.1,2.1-8.8,5.5l0,0l-25.5,51
				c-1.7,3.3-5.1,5.5-8.8,5.5h-30.5c-3.2,0-5.3-3.4-3.9-6.3l30.7-61.5c1.7-3.3,5.1-5.5,8.8-5.5h18.8l0,0c3.7,0,7.1-2.1,8.8-5.5l0,0
				l25.5-51c1.7-3.3,5.1-5.5,8.8-5.5H556C559.2,290.1,561.3,293.5,559.8,296.4z"/>
		</g>
		<g>
			<path class="st0" d="M709.9,148l-30.7,61.5c-1.7,3.3-5.1,5.4-8.8,5.4h-18.8l0,0c-3.7,0-7.2,2.1-8.8,5.4l0,0l-25.5,51
				c-1.7,3.3-5.1,5.5-8.8,5.5h-30.5c-3.2,0-5.3-3.4-3.9-6.3l30.7-61.5c1.7-3.3,5.1-5.4,8.8-5.4h18.8l0,0c3.7,0,7.2-2.1,8.8-5.4l0,0
				l25.5-51c1.7-3.3,5.1-5.4,8.8-5.4H706C709.2,141.7,711.3,145.1,709.9,148z"/>
		</g>
		<g>
			<path class="st0" d="M574,296.4l30.7,61.5c1.7,3.3,5.1,5.5,8.8,5.5h18.8l0,0c3.7,0,7.2,2.1,8.8,5.5l0,0l25.5,51
				c1.7,3.3,5.1,5.5,8.8,5.5H706c3.2,0,5.3-3.4,3.9-6.3l-30.7-61.5c-1.7-3.3-5.1-5.5-8.8-5.5h-18.8l0,0c-3.7,0-7.2-2.1-8.8-5.5l0,0
				l-25.5-51c-1.7-3.3-5.1-5.5-8.8-5.5h-30.5C574.7,290.1,572.6,293.5,574,296.4z"/>
		</g>
	</g>
</g>
</svg>
