<?xml version="1.0" encoding="utf-8"?>
<!-- Generator: Adobe Illustrator 25.4.1, SVG Export Plug-In . SVG Version: 6.00 Build 0)  -->
<svg version="1.1" xmlns="http://www.w3.org/2000/svg" xmlns:xlink="http://www.w3.org/1999/xlink" x="0px" y="0px"
	 viewBox="0 0 245.8 37.2" style="enable-background:new 0 0 245.8 37.2;" xml:space="preserve">
<style type="text/css">
	.st0{fill-rule:evenodd;clip-rule:evenodd;}
</style>
<g id="Слой_2">
</g>
<g id="Слой_6">
</g>
<g id="Слой_7">
</g>
<g id="Слой_5">
	<g>
		<g>
			<g>
				<g>
					<g>
						<path fill="white" d="M37.2,7.4V0H7.4l0,0L0,7.4v22.3c0,4.1,3.3,7.4,7.4,7.4h22.3c4.1,0,7.4-3.3,7.4-7.4v-7.4v-7.4H18.6v7.4h11.2v7.4H7.4
							V7.4H37.2z"/>
						<path fill="white" d="M52.1,0h-7.4v29.8c0,4.1,3.3,7.4,7.4,7.4h29.8v-7.4H52.1V0z"/>
						<path fill="white" d="M119.2,29.8H96.8V0h-7.4v29.8c0,4.1,3.3,7.4,7.4,7.4h22.3c4.1,0,7.4-3.3,7.4-7.4V0h-7.4V29.8z"/>
						<path fill="white" d="M171.3,7.4V0h-29.8l0,0l-7.4,7.4v7.4v7.4v7.4c0,4.1,3.3,7.4,7.4,7.4h29.8v-7.4h-29.8v-7.4h14.9v-7.4h-14.9V7.4H171.3z
							"/>
					</g>
					<polygon fill="white" points="230.9,0 222.9,0 216.6,14.9 208.1,14.9 201.8,0 193.7,0 201.5,18.6 193.7,37.2 201.8,37.2 208.1,22.3 
						216.6,22.3 222.9,37.2 230.9,37.2 223.1,18.6 					"/>
				</g>
				<g>
					<path fill="white" d="M234.6,0.9V0h5v0.9h-2.1v6.6h-0.9V0.9H234.6z"/>
					<path fill="white" d="M240.8,7.4V0h0.9l1.6,2.4l1.6-2.4h0.9v7.4H245V1.5l-1.2,1.7c0,0.1-0.1,0.2-0.1,0.4v0.5h-0.9V3.7c0-0.2,0-0.3-0.1-0.4
						l-1.2-1.7v5.9H240.8z"/>
				</g>
			</g>
		</g>
	</g>
</g>
</svg>
