<svg width="287" height="284" viewBox="0 0 287 284" fill="none" xmlns="http://www.w3.org/2000/svg">
  <path
    d="M0.499956 6.2002L31.2 67.7002C32.9 71.0002 36.3 73.1002 40 73.1002H58.8C62.5 73.1002 65.9 75.2002 67.6 78.5002L93.1 129.5C94.8 132.8 98.2 135 101.9 135H132.5C135.7 135 137.8 131.6 136.4 128.7L105.7 67.2002C104 63.9002 100.6 61.8002 96.9 61.8002H78.1C74.4 61.8002 71 59.7002 69.3 56.4002L43.8 5.4002C42.1 2.1002 38.7 0.000201539 35 0.000201539H4.49996C1.09996 -0.0997985 -0.900044 3.3002 0.499956 6.2002Z"
    fill="#010100" />
  <path
    d="M136.3 154.6L105.6 216.1C103.9 219.4 100.5 221.6 96.8001 221.6H78.0001C74.3001 221.6 70.9001 223.7 69.2001 227.1L43.7001 278.1C42.0001 281.4 38.6001 283.6 34.9001 283.6H4.40009C1.20009 283.6 -0.899908 280.2 0.500092 277.3L31.2001 215.8C32.9001 212.5 36.3001 210.3 40.0001 210.3H58.8001C62.5001 210.3 65.9001 208.2 67.6001 204.8L93.1001 153.8C94.8001 150.5 98.2001 148.3 101.9 148.3H132.5C135.7 148.3 137.8 151.7 136.3 154.6Z"
    fill="#010100" />
  <path
    d="M286.4 6.2002L255.7 67.7002C254 71.0002 250.6 73.1002 246.9 73.1002H228.1C224.4 73.1002 220.9 75.2002 219.3 78.5002L193.8 129.5C192.1 132.8 188.7 135 185 135H154.5C151.3 135 149.2 131.6 150.6 128.7L181.3 67.2002C183 63.9002 186.4 61.8002 190.1 61.8002H208.9C212.6 61.8002 216.1 59.7002 217.7 56.4002L243.2 5.4002C244.9 2.1002 248.3 0.000201539 252 0.000201539H282.5C285.7 -0.0997985 287.8 3.3002 286.4 6.2002Z"
    fill="#010100" />
  <path
    d="M150.5 154.6L181.2 216.1C182.9 219.4 186.3 221.6 190 221.6H208.8C212.5 221.6 216 223.7 217.6 227.1L243.1 278.1C244.8 281.4 248.2 283.6 251.9 283.6H282.5C285.7 283.6 287.8 280.2 286.4 277.3L255.7 215.8C254 212.5 250.6 210.3 246.9 210.3H228.1C224.4 210.3 220.9 208.2 219.3 204.8L193.8 153.8C192.1 150.5 188.7 148.3 185 148.3H154.5C151.2 148.3 149.1 151.7 150.5 154.6Z"
    fill="#010100" />
</svg>